<?xml version="1.0" standalone="no"?> <!DOCTYPE svg PUBLIC "-//W3C//DTD SVG 20010904//EN" "http://www.w3.org/TR/2001/REC-SVG-20010904/DTD/svg10.dtd"> <svg version="1.0" xmlns="http://www.w3.org/2000/svg" width="512.000000pt" height="512.000000pt" viewBox="0 0 512.000000 512.000000" preserveAspectRatio="xMidYMid meet"> <g transform="translate(0.000000,512.000000) scale(0.100000,-0.100000)" fill="#ffffff" stroke="none"> <path d="M2438 5110 c-182 -33 -374 -151 -470 -288 -15 -22 -38 -26 -509 -82 -272 -32 -502 -62 -512 -65 -10 -4 -24 -20 -33 -36 -13 -26 -11 -56 21 -322 19 -162 35 -301 35 -310 0 -13 -10 -17 -44 -17 -27 0 -52 -7 -65 -17 -12 -10 -83 -119 -158 -243 l-136 -225 -13 -245 c-8 -135 -45 -864 -84 -1620 -38 -756 -73 -1421 -76 -1477 l-7 -102 31 -30 30 -31 2112 0 2112 0 30 31 31 30 -7 102 c-3 56 -38 721 -76 1477 -39 756 -76 1485 -84 1620 l-13 245 -136 225 c-75 124 -146 233 -158 243 -17 13 -40 17 -111 17 -80 0 -89 2 -84 18 18 61 56 239 56 266 0 65 -13 70 -442 170 l-393 92 -21 66 c-76 234 -258 413 -499 487 -79 25 -249 36 -327 21z m271 -186 c96 -27 172 -73 247 -148 61 -61 124 -155 124 -184 0 -5 -44 1 -97 14 -184 44 -196 37 -237 -141 -65 -278 -58 -259 -99 -269 -23 -6 -40 -6 -46 0 -4 5 -22 137 -40 294 -18 157 -37 298 -43 314 -17 44 -59 57 -149 45 -41 -5 -92 -11 -114 -14 l-40 -5 45 29 c132 83 298 107 449 65z m-315 -501 c15 -137 30 -255 32 -264 3 -12 -67 -32 -403 -113 -225 -54 -418 -105 -431 -113 -46 -29 -48 -51 -13 -200 18 -76 35 -146 37 -155 5 -17 -9 -18 -204 -18 l-210 0 -5 28 c-15 78 -109 923 -103 929 6 6 1179 150 1242 152 l30 1 28 -247z m1035 -99 c273 -64 498 -118 499 -120 2 -1 -30 -146 -71 -321 l-74 -318 -251 -3 -251 -2 -11 38 c-5 21 -42 171 -81 333 -38 162 -77 304 -85 317 -25 39 -56 44 -144 23 -90 -21 -89 -21 -71 49 6 19 15 54 21 78 6 23 13 42 17 42 3 0 229 -52 502 -116z m-398 -477 c31 -131 60 -249 63 -262 l6 -25 -649 0 -650 0 -10 38 c-5 20 -18 74 -29 119 l-19 82 291 70 c160 39 428 104 596 145 168 41 314 74 325 73 17 -2 27 -32 76 -240z m-2024 -127 c6 -52 12 -110 12 -127 l1 -33 -105 0 c-58 0 -105 2 -105 4 0 3 34 62 76 131 95 157 104 159 121 25z m3227 -26 c42 -69 76 -127 76 -130 0 -2 -79 -4 -176 -4 -162 0 -175 1 -170 18 3 9 15 60 26 112 12 52 24 103 26 113 5 14 17 17 74 17 l69 0 75 -126z m156 -349 c0 -19 20 -425 45 -902 24 -477 56 -1093 70 -1368 14 -275 30 -578 35 -674 6 -95 10 -186 10 -202 l0 -29 -1990 0 c-1889 0 -1990 1 -1990 18 0 9 36 717 80 1572 44 855 80 1570 80 1588 l0 32 1830 0 1830 0 0 -35z"/> <path d="M1840 3201 c-80 -26 -146 -88 -175 -165 -22 -57 -16 -145 13 -202 22 -44 88 -108 120 -118 19 -6 20 -18 25 -229 5 -254 13 -294 82 -433 123 -247 378 -404 655 -404 91 0 213 25 292 59 198 85 356 267 419 483 18 62 22 107 26 295 5 211 6 223 25 229 32 10 98 74 120 118 29 57 35 145 13 202 -22 58 -75 118 -129 147 -58 30 -174 30 -231 0 -115 -62 -170 -192 -131 -310 20 -59 70 -121 120 -148 l36 -20 0 -200 c0 -148 -4 -216 -15 -259 -48 -183 -195 -338 -377 -397 -250 -81 -539 37 -662 271 -58 109 -66 159 -66 385 l0 200 36 20 c50 27 100 89 120 148 39 118 -17 250 -131 309 -43 22 -144 33 -185 19z m109 -176 c31 -16 53 -62 44 -94 -5 -21 -5 -21 -30 -1 -33 26 -73 25 -106 0 l-26 -20 -6 21 c-10 29 13 77 44 94 33 18 46 18 80 0z m1300 0 c33 -16 56 -64 46 -94 l-6 -21 -26 20 c-30 24 -80 26 -110 5 -18 -13 -22 -13 -27 0 -9 24 15 75 43 90 33 18 46 18 80 0z"/> </g> </svg>