<?xml version="1.0" standalone="no"?> <!DOCTYPE svg PUBLIC "-//W3C//DTD SVG 20010904//EN" "http://www.w3.org/TR/2001/REC-SVG-20010904/DTD/svg10.dtd"> <svg version="1.0" xmlns="http://www.w3.org/2000/svg" width="512.000000pt" height="512.000000pt" viewBox="0 0 512.000000 512.000000" preserveAspectRatio="xMidYMid meet"> <g transform="translate(0.000000,512.000000) scale(0.100000,-0.100000)" fill="#ffffff" stroke="none"> <path d="M1108 5041 c-31 -25 -43 -64 -27 -94 6 -12 57 -68 112 -124 56 -56 99 -104 96 -107 -2 -2 -47 -32 -99 -67 -302 -198 -574 -478 -762 -785 -148 -241 -264 -534 -317 -804 -44 -227 -44 -227 -48 -1088 -4 -754 -3 -836 12 -858 19 -30 60 -47 89 -38 11 4 69 54 128 112 59 58 109 104 112 101 2 -2 38 -55 80 -117 364 -542 905 -912 1536 -1051 205 -45 305 -55 540 -55 276 -1 451 23 700 95 370 106 744 322 1020 587 114 109 141 66 -338 544 -314 315 -414 409 -438 414 -27 5 -40 -2 -110 -62 -218 -186 -445 -286 -713 -315 -366 -39 -747 103 -1012 378 -131 136 -232 302 -285 467 l-25 79 130 131 c133 135 153 166 130 208 -23 43 -38 47 -166 48 l-123 0 0 34 c0 55 28 186 59 278 64 190 173 360 322 504 135 129 270 213 448 275 l92 32 132 -130 c73 -72 142 -134 155 -138 32 -9 77 11 91 41 6 14 11 76 11 139 l0 115 40 0 c54 0 178 -26 269 -56 368 -123 678 -437 791 -800 l20 -68 -129 -130 c-133 -135 -152 -166 -130 -208 26 -49 -1 -47 775 -48 706 0 733 1 755 19 l24 19 3 737 2 736 -29 30 c-51 51 -78 38 -211 -95 -52 -53 -97 -96 -101 -96 -3 0 -23 28 -44 63 -70 115 -205 286 -318 403 -346 361 -814 618 -1297 713 -226 44 -228 44 -1090 48 -830 4 -836 4 -862 -16z m1372 -708 l0 -567 -84 82 c-60 59 -91 82 -109 82 -13 0 -65 -12 -113 -26 -503 -145 -894 -578 -988 -1094 -8 -47 -17 -103 -18 -125 l-3 -40 -472 -3 -472 -2 5 67 c26 329 99 603 234 878 114 234 237 410 415 594 168 173 329 299 533 416 134 76 136 103 20 221 l-82 84 567 0 567 0 0 -567z m375 546 c481 -56 961 -284 1319 -629 175 -169 318 -353 432 -557 64 -113 96 -113 210 -1 l84 82 0 -567 0 -567 -567 0 -567 0 84 85 c82 85 83 86 77 128 -9 63 -63 222 -107 314 -67 138 -155 260 -274 378 -202 201 -434 327 -709 385 -51 11 -109 20 -129 20 -74 0 -68 -40 -68 482 l0 469 63 -6 c34 -3 103 -11 152 -16z m-1583 -2483 c-46 -46 -82 -92 -82 -103 0 -36 41 -177 77 -263 128 -310 367 -566 669 -718 363 -182 789 -198 1163 -41 114 47 198 96 311 180 l83 61 328 -328 c181 -181 329 -332 329 -335 0 -14 -192 -165 -305 -241 -281 -187 -604 -310 -965 -365 -156 -24 -479 -23 -644 1 -710 103 -1329 518 -1692 1133 -99 168 -117 172 -240 51 l-84 -82 0 567 0 567 567 0 567 0 -82 -84z"/> <path d="M2938 3019 c-9 -5 -52 -55 -96 -112 -82 -107 -474 -620 -478 -625 -1 -2 -68 40 -149 92 -82 53 -157 96 -167 96 -27 0 -78 -54 -78 -82 0 -13 6 -33 14 -44 20 -29 369 -254 392 -254 10 1 29 6 40 13 20 11 610 772 635 818 33 62 -51 135 -113 98z"/> </g> </svg>