<?xml version="1.0" standalone="no"?> <!DOCTYPE svg PUBLIC "-//W3C//DTD SVG 20010904//EN" "http://www.w3.org/TR/2001/REC-SVG-20010904/DTD/svg10.dtd"> <svg version="1.0" xmlns="http://www.w3.org/2000/svg" width="512.000000pt" height="512.000000pt" viewBox="0 0 512.000000 512.000000" preserveAspectRatio="xMidYMid meet"> <g transform="translate(0.000000,512.000000) scale(0.100000,-0.100000)" fill="#ffffff" stroke="none"> <path d="M493 4600 c-18 -11 -34 -21 -35 -22 -1 -2 -4 -91 -7 -198 l-6 -195 -197 -5 c-189 -5 -198 -6 -220 -28 l-23 -23 -3 -1779 -2 -1780 29 -32 29 -33 2502 0 2502 0 29 33 29 32 -2 1780 -3 1779 -23 23 c-22 22 -31 23 -220 28 l-197 5 -5 193 c-5 189 -6 194 -29 213 -13 11 -33 22 -45 25 -12 3 -273 -49 -581 -116 -589 -127 -1113 -240 -1328 -286 l-128 -27 -1007 217 c-554 119 -1011 216 -1017 216 -5 0 -25 -9 -42 -20z m452 -270 c154 -34 557 -121 895 -194 l615 -133 3 -1636 c1 -900 -2 -1637 -6 -1637 -8 0 -437 92 -1287 276 -165 35 -347 75 -405 87 l-105 22 -3 1638 c-1 900 1 1637 5 1637 5 0 134 -27 288 -60z m3527 -639 c3 -689 3 -700 24 -727 38 -52 103 -56 150 -9 l24 24 0 501 0 500 125 0 125 0 0 -1640 0 -1640 -702 1 c-387 0 -698 2 -693 5 9 3 571 125 900 195 179 38 200 45 225 76 20 25 20 39 20 605 l0 580 -29 29 c-40 40 -89 40 -133 0 l-33 -29 -5 -524 -5 -523 -450 -97 c-247 -53 -649 -140 -893 -193 -243 -52 -447 -95 -452 -95 -7 0 -9 563 -8 1637 l3 1637 200 43 c110 24 463 100 785 169 322 70 632 137 690 149 58 13 111 24 117 24 10 1 13 -152 15 -698z m-4022 -1199 c0 -1328 2 -1490 16 -1510 27 -39 -26 -25 769 -197 193 -41 355 -77 360 -79 6 -3 -306 -5 -692 -5 l-703 -1 0 1640 0 1640 125 0 125 0 0 -1488z"/> <path d="M973 3792 c-12 -2 -33 -15 -47 -29 l-26 -26 0 -291 c1 -298 1 -302 41 -333 8 -7 80 -26 160 -43 79 -17 340 -73 580 -126 465 -100 464 -100 508 -53 20 22 21 32 21 314 l0 291 -27 26 c-19 17 -52 31 -98 41 -167 37 -1014 219 -1050 225 -22 4 -50 6 -62 4z m602 -324 c231 -49 423 -92 428 -95 7 -4 11 -293 3 -293 -1 0 -192 41 -422 91 -230 50 -434 93 -451 96 l-33 6 0 149 0 150 27 -7 c15 -3 216 -47 448 -97z"/> <path d="M931 2764 c-25 -21 -31 -33 -31 -65 0 -50 23 -85 63 -98 18 -6 210 -49 427 -95 217 -47 469 -101 559 -121 178 -39 214 -37 246 8 31 44 13 122 -35 147 -10 5 -175 43 -367 84 -191 42 -442 96 -557 121 -116 25 -224 45 -242 45 -20 0 -44 -10 -63 -26z"/> <path d="M931 2264 c-25 -21 -31 -33 -31 -66 0 -21 5 -48 10 -58 20 -37 -2 -31 625 -166 193 -41 401 -86 464 -100 62 -14 125 -23 138 -19 73 18 99 111 46 164 -24 23 -55 32 -223 68 -107 23 -363 78 -567 123 -205 44 -386 80 -402 80 -17 0 -42 -11 -60 -26z"/> <path d="M929 1761 c-50 -51 -36 -134 28 -159 61 -24 1156 -253 1180 -247 69 17 97 106 50 160 -25 30 29 17 -751 185 -231 49 -432 90 -448 90 -19 0 -40 -10 -59 -29z"/> <path d="M4115 3793 c-11 -2 -239 -51 -506 -109 -267 -57 -519 -111 -560 -120 -57 -12 -80 -23 -101 -45 -38 -40 -39 -96 -2 -133 41 -40 39 -40 344 25 855 183 884 190 913 217 37 35 38 97 2 136 -13 14 -28 26 -34 26 -5 0 -15 2 -23 4 -7 2 -22 2 -33 -1z"/> <path d="M3545 3171 c-297 -65 -550 -121 -562 -125 -59 -19 -83 -110 -42 -155 42 -45 52 -44 347 19 715 153 886 191 901 203 31 24 40 43 41 83 0 60 -36 94 -99 93 -25 0 -289 -54 -586 -118z"/> <path d="M3685 2700 c-220 -48 -470 -102 -555 -121 -131 -28 -159 -37 -182 -60 l-28 -27 0 -542 0 -541 24 -24 c32 -32 65 -39 123 -26 26 5 280 60 563 121 283 61 528 115 543 122 59 23 57 4 57 594 l0 542 -31 26 c-23 19 -41 26 -72 25 -23 0 -222 -40 -442 -89z m345 -529 l0 -399 -47 -11 c-27 -5 -226 -48 -444 -95 -218 -47 -401 -86 -408 -86 -8 0 -11 101 -9 397 l3 396 445 97 c245 54 448 98 453 99 4 0 7 -179 7 -398z"/> <path d="M4508 2643 c-35 -38 -41 -65 -24 -108 20 -48 72 -71 122 -55 43 15 64 44 64 93 0 86 -105 131 -162 70z"/> </g> </svg>