<?xml version="1.0" standalone="no"?> <!DOCTYPE svg PUBLIC "-//W3C//DTD SVG 20010904//EN" "http://www.w3.org/TR/2001/REC-SVG-20010904/DTD/svg10.dtd"> <svg version="1.0" xmlns="http://www.w3.org/2000/svg" width="512.000000pt" height="512.000000pt" viewBox="0 0 512.000000 512.000000" preserveAspectRatio="xMidYMid meet"> <g transform="translate(0.000000,512.000000) scale(0.100000,-0.100000)" fill="#ffffff" stroke="none"> <path d="M2440 4344 c-415 -29 -762 -128 -907 -258 -84 -76 -96 -110 -94 -284 0 -81 4 -205 7 -275 l7 -128 -54 8 c-107 16 -347 8 -439 -15 -258 -63 -463 -180 -630 -359 -254 -272 -371 -647 -316 -1013 76 -501 448 -897 950 -1013 123 -28 372 -30 494 -3 169 36 317 99 454 193 l82 55 80 -15 c151 -29 412 -57 544 -57 24 0 32 -4 32 -18 0 -31 60 -112 115 -153 389 -293 1620 -321 2145 -48 94 48 179 133 198 196 9 30 12 197 12 625 0 682 3 657 -88 747 -116 115 -338 196 -669 245 -83 13 -339 36 -395 36 -17 0 -18 33 -18 550 l0 550 -30 64 c-36 75 -98 136 -186 183 -138 73 -376 136 -634 169 -119 14 -542 26 -660 18z m618 -219 c159 -19 309 -48 415 -81 151 -48 268 -121 254 -158 -18 -47 -207 -130 -387 -170 -186 -41 -331 -57 -572 -63 -339 -9 -603 19 -839 87 -154 44 -289 117 -289 155 0 21 69 76 129 103 170 75 418 124 741 146 100 7 419 -4 548 -19z m680 -667 c-3 -119 -5 -128 -28 -153 -14 -15 -52 -41 -85 -57 -323 -164 -1059 -215 -1558 -108 -73 16 -101 28 -177 78 -49 33 -123 75 -165 93 l-75 34 0 139 c0 157 -11 147 99 101 88 -37 263 -80 434 -107 127 -20 179 -22 492 -22 314 0 365 2 495 22 226 36 435 92 535 145 30 15 30 15 33 -11 2 -15 2 -84 0 -154z m-2269 -274 c283 -71 520 -261 654 -522 264 -513 49 -1137 -477 -1383 -232 -108 -510 -122 -759 -38 -310 106 -565 379 -646 694 -126 484 104 975 553 1186 210 98 448 121 675 63z m2271 -244 l0 -129 -32 -5 c-18 -3 -78 -8 -133 -11 -357 -21 -690 -114 -844 -235 l-50 -40 -99 0 c-55 0 -119 3 -144 6 -44 6 -45 7 -62 61 -25 77 -67 168 -115 247 -22 37 -41 69 -41 70 0 1 30 -2 68 -7 37 -6 211 -11 387 -11 337 0 440 8 670 55 113 24 284 78 342 108 21 11 41 20 46 21 4 0 7 -58 7 -130z m549 -364 c286 -38 530 -116 602 -192 29 -31 21 -46 -44 -90 -92 -63 -309 -126 -547 -159 -156 -22 -551 -31 -721 -16 -315 27 -560 88 -691 172 -66 43 -76 64 -46 96 83 89 404 176 758 207 110 9 571 -3 689 -18z m-1666 -433 c4 -98 3 -180 -1 -183 -4 -3 -51 -4 -105 -2 l-99 4 6 36 c3 21 8 101 12 180 l7 142 87 0 87 0 6 -177z m2295 -197 c-4 -170 -9 -182 -104 -233 -333 -181 -1124 -226 -1648 -94 -142 36 -257 84 -301 126 l-35 32 0 152 c0 83 2 151 5 151 3 0 32 -11 65 -25 133 -56 333 -102 565 -131 191 -23 597 -23 790 0 248 30 499 91 605 147 63 33 62 34 58 -125z m-2292 -200 c1 0 4 -81 7 -178 l5 -178 -84 0 c-83 0 -360 27 -375 36 -5 2 16 40 46 84 30 44 73 118 95 166 l41 85 132 -7 c73 -3 133 -7 133 -8z m2294 -370 l0 -154 -32 -31 c-60 -59 -200 -115 -391 -156 -353 -76 -869 -78 -1226 -4 -199 41 -358 103 -405 160 -25 30 -26 34 -26 175 0 79 4 144 9 144 5 0 33 -11 63 -24 113 -50 337 -102 553 -128 148 -17 644 -17 790 0 242 30 458 82 595 145 30 14 58 26 63 26 4 1 7 -68 7 -153z"/> <path d="M1230 2900 c-208 -55 -383 -199 -472 -387 l-30 -63 -79 0 c-92 0 -131 -15 -154 -60 -19 -37 -19 -53 1 -91 19 -39 68 -59 139 -59 l55 0 0 -55 0 -55 -70 0 c-63 0 -73 -3 -102 -29 -27 -24 -33 -36 -33 -71 0 -35 6 -47 33 -71 31 -28 37 -29 126 -29 l95 0 24 -52 c58 -127 187 -256 321 -322 154 -76 341 -97 501 -56 95 24 122 41 141 86 12 29 12 39 0 68 -26 64 -81 81 -164 52 -184 -65 -444 17 -562 178 l-31 41 285 5 286 5 26 26 c38 39 39 99 1 136 l-27 28 -323 5 -322 5 -3 53 -3 52 323 0 c196 0 338 4 361 11 76 21 98 112 42 168 l-25 26 -315 3 c-173 2 -315 5 -315 8 0 15 66 97 107 134 125 110 313 157 463 115 30 -9 74 -18 97 -22 37 -5 45 -2 73 25 37 38 41 95 9 135 -52 67 -322 99 -479 57z"/> </g> </svg>