<?xml version="1.0" standalone="no"?> <!DOCTYPE svg PUBLIC "-//W3C//DTD SVG 20010904//EN" "http://www.w3.org/TR/2001/REC-SVG-20010904/DTD/svg10.dtd"> <svg version="1.0" xmlns="http://www.w3.org/2000/svg" width="512.000000pt" height="512.000000pt" viewBox="0 0 512.000000 512.000000" preserveAspectRatio="xMidYMid meet"> <g transform="translate(0.000000,512.000000) scale(0.100000,-0.100000)" fill="#ffffff" stroke="none"> <path d="M2331 5024 c-133 -17 -277 -54 -394 -101 l-92 -38 -670 -5 -670 -5 -65 -23 c-153 -55 -263 -162 -324 -314 -46 -118 -45 -165 18 -605 31 -216 65 -417 76 -448 38 -111 110 -203 208 -269 92 -61 176 -88 294 -94 l96 -5 7 -56 c21 -182 85 -395 169 -563 127 -252 299 -456 541 -639 149 -114 235 -210 299 -337 l27 -53 -34 -39 c-70 -82 -76 -195 -15 -283 19 -27 19 -27 0 -55 -55 -79 -55 -185 0 -265 19 -27 19 -27 0 -55 -81 -117 -34 -288 97 -346 32 -15 45 -30 67 -75 59 -120 205 -231 342 -260 69 -14 435 -14 504 0 137 29 283 140 342 260 22 45 35 60 67 75 131 58 178 229 97 346 -19 28 -19 28 0 55 55 80 55 186 0 265 -19 28 -19 28 0 55 62 90 52 215 -24 294 -25 26 -25 26 -8 63 13 27 22 35 33 30 9 -4 94 -9 189 -12 l172 -4 0 -134 c0 -130 1 -136 25 -159 15 -16 35 -25 56 -25 29 0 52 20 193 159 l161 159 195 4 c172 4 203 7 260 27 163 57 293 189 344 346 18 58 126 796 126 864 -1 132 -66 277 -170 375 -115 108 -224 146 -427 146 l-123 0 0 49 c0 79 -29 277 -55 381 -217 862 -1050 1428 -1934 1314z m532 -174 c1037 -203 1599 -1340 1127 -2280 -121 -241 -264 -408 -518 -604 -155 -121 -277 -269 -335 -408 l-16 -38 -561 0 -561 0 -16 38 c-60 145 -179 287 -352 421 -71 56 -165 136 -209 180 -245 245 -399 559 -448 914 -5 41 -4 47 12 47 10 0 89 -71 179 -160 142 -140 165 -160 194 -160 21 0 41 9 56 25 24 23 25 29 25 158 l0 135 178 4 c154 4 185 8 237 28 161 61 283 183 335 335 11 31 45 232 76 448 61 430 64 484 23 594 -31 83 -77 150 -147 215 -34 31 -62 59 -62 61 0 11 205 56 320 71 86 11 358 -3 463 -24z m-918 -164 c110 -54 182 -148 208 -271 11 -53 7 -89 -46 -459 -66 -460 -72 -483 -172 -575 -93 -84 -132 -94 -393 -101 -220 -5 -224 -5 -243 -29 -15 -18 -19 -39 -19 -99 l0 -77 -100 100 -100 100 -223 5 c-260 7 -299 17 -392 101 -99 91 -106 117 -171 559 -62 429 -63 471 -18 567 46 97 146 179 248 204 17 4 330 7 696 6 l665 -2 60 -29z m2720 -1601 c109 -53 182 -147 208 -270 11 -53 7 -89 -46 -459 -66 -460 -72 -483 -172 -575 -93 -84 -132 -94 -392 -101 l-223 -5 -100 -100 -100 -100 0 78 c0 69 -3 81 -25 102 -24 25 -26 25 -215 25 -104 0 -190 4 -190 8 0 14 114 118 200 183 47 35 119 96 161 136 l76 73 397 0 396 0 0 80 0 80 -329 2 -329 3 57 86 c31 48 71 118 90 158 l35 71 238 0 238 0 0 80 0 80 -206 0 -206 0 6 23 c29 96 57 220 67 293 l12 86 146 -4 c136 -4 150 -6 206 -33z m-1490 -1750 c16 -15 25 -36 25 -55 0 -19 -9 -40 -25 -55 l-24 -25 -591 0 -591 0 -24 25 c-16 15 -25 36 -25 55 0 19 9 40 25 55 l24 25 591 0 591 0 24 -25z m0 -320 c16 -15 25 -36 25 -55 0 -19 -9 -40 -25 -55 l-24 -25 -591 0 -591 0 -24 25 c-16 15 -25 36 -25 55 0 19 9 40 25 55 l24 25 591 0 591 0 24 -25z m0 -320 c16 -15 25 -36 25 -55 0 -19 -9 -40 -25 -55 l-24 -25 -591 0 -591 0 -24 25 c-16 15 -25 36 -25 55 0 19 9 40 25 55 l24 25 591 0 591 0 24 -25z m-202 -330 c-37 -48 -106 -92 -170 -111 -42 -12 -97 -15 -266 -12 -194 3 -216 5 -260 25 -53 25 -94 56 -133 103 l-26 30 442 0 441 0 -28 -35z"/> <path d="M1760 2787 c-49 -16 -133 -102 -148 -153 -28 -94 -8 -169 63 -239 101 -102 229 -102 330 0 98 97 101 222 8 325 -65 72 -158 97 -253 67z m135 -172 c50 -49 15 -135 -55 -135 -19 0 -40 9 -55 25 -50 49 -15 135 55 135 19 0 40 -9 55 -25z"/> <path d="M2480 2787 c-49 -16 -133 -102 -148 -153 -28 -94 -8 -169 63 -239 101 -102 229 -102 330 0 98 97 101 222 8 325 -65 72 -158 97 -253 67z m135 -172 c50 -49 15 -135 -55 -135 -19 0 -40 9 -55 25 -50 49 -15 135 55 135 19 0 40 -9 55 -25z"/> <path d="M3200 2787 c-49 -16 -133 -102 -148 -153 -28 -94 -8 -169 63 -239 101 -102 229 -102 330 0 98 97 101 222 8 325 -65 72 -158 97 -253 67z m135 -172 c50 -49 15 -135 -55 -135 -41 0 -80 39 -80 80 0 19 9 40 25 55 15 16 36 25 55 25 19 0 40 -9 55 -25z"/> <path d="M880 4240 l0 -80 520 0 520 0 0 80 0 80 -520 0 -520 0 0 -80z"/> <path d="M480 3760 l0 -80 720 0 720 0 0 80 0 80 -720 0 -720 0 0 -80z"/> </g> </svg>