<?xml version="1.0" standalone="no"?> <!DOCTYPE svg PUBLIC "-//W3C//DTD SVG 20010904//EN" "http://www.w3.org/TR/2001/REC-SVG-20010904/DTD/svg10.dtd"> <svg version="1.0" xmlns="http://www.w3.org/2000/svg" width="512.000000pt" height="512.000000pt" viewBox="0 0 512.000000 512.000000" preserveAspectRatio="xMidYMid meet"> <g transform="translate(0.000000,512.000000) scale(0.100000,-0.100000)" fill="#ffffff" stroke="none"> <path d="M1142 4465 c-184 -40 -345 -167 -432 -339 -73 -146 -70 -66 -70 -1566 0 -1504 -4 -1419 72 -1570 75 -149 220 -271 383 -323 68 -21 82 -22 557 -22 476 0 487 0 514 21 53 39 69 71 69 134 0 63 -16 95 -69 134 -27 20 -42 21 -499 26 l-472 5 -48 24 c-63 31 -127 94 -157 156 l-25 50 0 1365 0 1365 25 50 c31 64 91 124 155 155 l50 25 472 5 c457 5 472 6 499 26 53 39 69 71 69 134 0 63 -16 95 -69 134 -27 20 -40 21 -494 23 -366 1 -481 -1 -530 -12z"/> <path d="M3332 3600 c-18 -11 -41 -34 -52 -52 -24 -39 -27 -117 -6 -156 8 -15 159 -171 335 -347 l321 -320 -1114 -5 c-1106 -5 -1115 -5 -1142 -26 -53 -39 -69 -71 -69 -134 0 -63 16 -95 69 -134 27 -21 36 -21 1142 -26 l1114 -5 -321 -320 c-176 -176 -327 -332 -335 -347 -8 -15 -14 -49 -14 -75 0 -90 63 -153 153 -153 27 0 58 5 70 11 31 16 965 948 983 981 8 15 14 45 14 68 0 23 -6 53 -14 68 -18 33 -952 965 -983 981 -35 18 -114 13 -151 -9z"/> </g> </svg>