<?xml version="1.0" standalone="no"?> <!DOCTYPE svg PUBLIC "-//W3C//DTD SVG 20010904//EN" "http://www.w3.org/TR/2001/REC-SVG-20010904/DTD/svg10.dtd"> <svg version="1.0" xmlns="http://www.w3.org/2000/svg" width="512.000000pt" height="512.000000pt" viewBox="0 0 512.000000 512.000000" preserveAspectRatio="xMidYMid meet"> <g transform="translate(0.000000,512.000000) scale(0.100000,-0.100000)" fill="#ffffff" stroke="none"> <path d="M659 5105 c-15 -8 -32 -29 -38 -46 -16 -45 -16 -4953 0 -4998 23 -66 -120 -61 1939 -61 2080 0 1919 -6 1940 68 8 26 10 632 8 2065 l-3 2027 -480 480 -480 480 -1430 0 c-1223 -1 -1434 -3 -1456 -15z m2771 -587 c1 -317 4 -427 13 -439 29 -38 46 -39 471 -39 l416 0 0 -1930 0 -1930 -1770 0 -1770 0 0 2380 0 2380 1320 0 1320 0 0 -422z m770 -295 c0 -2 -133 -3 -295 -3 l-295 0 0 291 0 291 295 -288 c162 -159 295 -289 295 -291z"/> <path d="M2511 3540 c-240 -65 -437 -236 -527 -458 l-23 -57 -99 -5 c-81 -4 -104 -9 -122 -25 -34 -31 -42 -61 -26 -100 19 -45 42 -55 130 -55 l76 0 0 -37 c0 -21 3 -62 6 -90 l7 -53 -82 0 c-92 0 -123 -13 -140 -61 -15 -43 4 -88 45 -105 21 -9 70 -14 133 -14 l99 0 11 -31 c20 -57 101 -167 175 -236 91 -84 194 -144 311 -179 126 -38 300 -40 425 -4 50 14 94 33 107 46 32 32 31 87 -2 119 -29 30 -64 32 -143 8 -77 -23 -258 -24 -327 -1 -150 49 -250 120 -340 241 l-27 37 286 0 c326 0 346 3 366 64 9 28 9 41 -2 63 -24 51 -37 53 -389 53 l-326 0 -7 46 c-3 26 -6 66 -6 90 l0 44 375 0 376 0 24 25 c35 34 34 93 -1 126 l-26 24 -349 3 -350 3 33 61 c83 155 257 271 450 298 83 12 127 8 250 -23 l87 -21 28 20 c35 27 50 65 37 100 -22 64 -119 95 -314 100 -111 3 -148 1 -209 -16z"/> <path d="M1268 1639 c-15 -6 -33 -25 -42 -44 -15 -30 -15 -38 -2 -69 8 -19 23 -39 34 -45 30 -16 1255 -15 1285 1 53 28 63 88 23 135 l-24 28 -624 2 c-390 1 -633 -2 -650 -8z"/> <path d="M1257 1189 c-11 -6 -25 -26 -33 -45 -16 -38 -8 -68 26 -99 22 -20 36 -20 1260 -20 1357 0 1279 -4 1300 60 13 39 1 76 -32 99 -20 14 -141 16 -1263 16 -863 -1 -1246 -4 -1258 -11z"/> <path d="M1268 749 c-15 -6 -33 -25 -42 -44 -15 -30 -15 -38 -2 -69 8 -19 23 -39 34 -45 15 -8 391 -11 1259 -11 1119 0 1241 2 1261 16 34 23 45 60 31 101 -22 67 50 63 -1296 62 -764 0 -1228 -4 -1245 -10z"/> </g> </svg>