<?xml version="1.0" standalone="no"?> <!DOCTYPE svg PUBLIC "-//W3C//DTD SVG 20010904//EN" "http://www.w3.org/TR/2001/REC-SVG-20010904/DTD/svg10.dtd"> <svg version="1.0" xmlns="http://www.w3.org/2000/svg" width="512.000000pt" height="512.000000pt" viewBox="0 0 512.000000 512.000000" preserveAspectRatio="xMidYMid meet"> <g transform="translate(0.000000,512.000000) scale(0.100000,-0.100000)" fill="#ffffff" stroke="none"> <path d="M1583 4895 c-175 -49 -311 -178 -364 -344 -19 -58 -22 -96 -27 -323 l-4 -256 -382 -4 c-356 -4 -385 -6 -447 -26 -128 -42 -243 -139 -301 -254 -60 -118 -58 -85 -58 -1128 0 -1045 -1 -1019 59 -1139 38 -74 137 -174 211 -211 108 -54 151 -60 464 -60 l286 0 0 -427 c0 -388 2 -431 18 -463 21 -43 58 -58 99 -41 18 7 196 196 446 471 l417 459 753 4 c716 3 755 5 807 23 93 33 154 70 212 129 89 89 148 213 148 314 0 23 4 41 8 41 4 0 100 -102 212 -226 113 -124 220 -239 238 -255 41 -37 84 -38 117 -4 l25 24 0 446 0 445 84 0 c241 0 440 154 500 387 14 53 16 180 16 1011 0 600 -4 969 -10 1003 -17 88 -71 189 -136 255 -70 71 -132 109 -222 136 -65 19 -111 19 -1592 24 -1327 4 -1532 2 -1577 -11z m3138 -180 c104 -36 196 -141 219 -249 7 -35 10 -356 8 -1001 l-3 -950 -26 -56 c-34 -72 -96 -134 -168 -167 -50 -24 -71 -27 -203 -32 -212 -7 -192 37 -198 -424 l-5 -374 -205 226 -205 226 -5 820 c-6 802 -6 822 -27 876 -11 31 -31 76 -43 100 -32 63 -144 171 -210 203 -123 59 -79 57 -1227 57 l-1053 0 0 250 c0 226 2 254 20 304 37 98 129 178 237 206 24 6 588 8 1544 5 1309 -4 1511 -7 1550 -20z m-1216 -929 c102 -27 188 -103 224 -200 21 -56 21 -63 21 -1029 l0 -972 -29 -60 c-35 -73 -86 -127 -154 -162 -46 -23 -69 -27 -192 -34 -77 -4 -430 -8 -785 -8 -596 -1 -647 -2 -672 -19 -14 -9 -183 -190 -375 -401 l-348 -384 -5 384 c-3 211 -7 385 -8 386 -25 25 -68 28 -402 33 l-355 5 -57 27 c-70 32 -133 96 -167 168 l-26 55 0 980 0 980 26 56 c36 76 90 133 157 166 55 27 64 28 252 34 107 3 791 6 1520 7 1081 1 1334 -1 1375 -12z"/> <path d="M824 3110 c-55 -22 -70 -95 -29 -135 l24 -25 589 0 589 0 20 23 c11 12 24 32 27 44 9 29 -16 76 -49 91 -31 14 -1136 16 -1171 2z"/> <path d="M833 2603 c-30 -6 -63 -49 -63 -84 0 -15 11 -41 24 -56 l24 -28 1129 0 c620 0 1141 4 1156 8 42 11 62 65 43 111 -11 27 -23 37 -53 45 -37 11 -2208 14 -2260 4z"/> <path d="M795 2065 c-32 -31 -32 -75 -1 -112 l24 -28 1119 -3 c798 -2 1129 0 1156 8 29 9 42 19 53 45 15 38 11 59 -19 93 l-20 22 -1144 0 -1144 0 -24 -25z"/> </g> </svg>