<?xml version="1.0" standalone="no"?> <!DOCTYPE svg PUBLIC "-//W3C//DTD SVG 20010904//EN" "http://www.w3.org/TR/2001/REC-SVG-20010904/DTD/svg10.dtd"> <svg version="1.0" xmlns="http://www.w3.org/2000/svg" width="512.000000pt" height="512.000000pt" viewBox="0 0 512.000000 512.000000" preserveAspectRatio="xMidYMid meet"> <g transform="translate(0.000000,512.000000) scale(0.100000,-0.100000)" fill="#ffffff" stroke="none"> <path d="M455 4498 c-90 -17 -209 -82 -284 -156 -78 -77 -142 -195 -160 -296 -15 -83 -15 -2889 0 -2972 18 -101 82 -219 160 -296 80 -79 197 -141 299 -158 46 -8 671 -10 2130 -8 l2065 3 66 26 c185 72 302 193 365 379 18 53 19 115 19 1540 0 1425 -1 1487 -19 1540 -32 94 -79 172 -141 236 -67 67 -125 105 -224 143 l-66 26 -2080 1 c-1273 1 -2099 -2 -2130 -8z m4190 -276 c28 -9 50 -21 50 -27 0 -5 -153 -138 -340 -295 -1346 -1130 -1789 -1500 -1796 -1498 -4 2 -260 219 -570 483 -310 264 -782 667 -1050 895 -268 228 -489 420 -491 425 -11 33 47 34 2107 34 1897 0 2044 -1 2090 -17z m-3972 -560 c211 -180 534 -455 718 -611 184 -156 338 -288 343 -292 4 -4 -232 -288 -525 -631 -293 -342 -618 -723 -723 -846 -106 -124 -194 -218 -198 -214 -5 5 -13 38 -18 73 -11 71 -14 2738 -4 2812 4 26 10 44 15 41 5 -2 181 -152 392 -332z m4167 -2568 l-11 -28 -23 25 c-13 13 -338 390 -721 838 -577 672 -696 816 -683 825 8 6 192 160 409 343 217 182 538 452 714 600 l320 269 3 -1422 c1 -974 -1 -1431 -8 -1450z m-2624 1249 c146 -126 276 -233 287 -240 29 -16 76 -16 108 1 15 7 149 116 299 241 149 125 275 223 279 219 4 -5 219 -254 477 -554 257 -300 580 -674 716 -833 205 -237 245 -289 231 -295 -23 -9 -4099 -9 -4108 0 -7 7 1423 1686 1437 1687 4 1 128 -101 274 -226z"/> </g> </svg>