<?xml version="1.0" standalone="no"?> <!DOCTYPE svg PUBLIC "-//W3C//DTD SVG 20010904//EN" "http://www.w3.org/TR/2001/REC-SVG-20010904/DTD/svg10.dtd"> <svg version="1.0" xmlns="http://www.w3.org/2000/svg" width="512.000000pt" height="512.000000pt" viewBox="0 0 512.000000 512.000000" preserveAspectRatio="xMidYMid meet"> <g transform="translate(0.000000,512.000000) scale(0.100000,-0.100000)" fill="#e1ab2b" stroke="none"> <path d="M2430 5104 c-167 -35 -324 -159 -398 -315 -51 -105 -66 -184 -60 -299 l5 -89 -96 -46 c-160 -78 -283 -166 -422 -305 -224 -223 -359 -471 -431 -789 -20 -91 -22 -128 -27 -766 -6 -667 -6 -670 -28 -711 -44 -83 -128 -133 -224 -135 -116 -1 -256 -65 -335 -152 -112 -124 -140 -310 -69 -465 30 -65 119 -160 183 -195 111 -60 -7 -57 2032 -57 1644 0 1873 2 1925 15 315 82 435 464 221 702 -79 87 -219 151 -335 152 -96 2 -180 52 -224 135 -22 41 -22 45 -28 691 -6 614 -7 656 -27 749 -49 226 -146 452 -270 626 -81 114 -239 277 -343 353 -83 61 -228 146 -294 174 l-43 17 5 93 c7 118 -8 196 -59 302 -116 243 -388 373 -658 315z m256 -370 c29 -18 60 -48 78 -77 45 -73 56 -177 17 -162 -29 12 -304 17 -381 7 -41 -5 -77 -8 -80 -5 -8 8 -1 87 11 117 22 54 68 104 122 131 73 37 163 33 233 -11z"/> <path d="M845 4631 c-23 -10 -75 -55 -122 -104 -252 -267 -447 -618 -549 -986 -46 -169 -44 -212 14 -275 53 -57 125 -70 198 -37 58 26 82 66 114 189 89 338 250 630 486 882 82 88 94 110 94 176 0 73 -39 128 -112 159 -48 19 -74 19 -123 -4z"/> <path d="M4153 4639 c-47 -14 -98 -69 -111 -120 -18 -71 0 -120 73 -198 248 -266 407 -549 500 -887 39 -141 60 -178 119 -205 73 -33 145 -20 198 37 58 63 60 106 14 275 -100 364 -294 712 -548 984 -108 115 -159 139 -245 114z"/> <path d="M1982 594 c-26 -18 -29 -62 -8 -141 58 -219 239 -391 461 -438 303 -64 606 112 702 408 13 38 23 89 23 113 0 78 29 74 -600 74 -487 0 -558 -2 -578 -16z"/> </g> </svg>