<?xml version="1.0" standalone="no"?> <!DOCTYPE svg PUBLIC "-//W3C//DTD SVG 20010904//EN" "http://www.w3.org/TR/2001/REC-SVG-20010904/DTD/svg10.dtd"> <svg version="1.0" xmlns="http://www.w3.org/2000/svg" width="512.000000pt" height="512.000000pt" viewBox="0 0 512.000000 512.000000" preserveAspectRatio="xMidYMid meet"> <g transform="translate(0.000000,512.000000) scale(0.100000,-0.100000)" fill="#ffffff" stroke="none"> <path d="M2047 5105 c-59 -22 -113 -70 -141 -127 l-26 -52 0 -292 0 -291 -137 5 c-591 20 -1084 -371 -1210 -958 -16 -74 -18 -135 -18 -465 0 -351 1 -384 19 -430 25 -64 94 -137 155 -164 48 -20 49 -21 64 -90 24 -106 74 -225 121 -288 63 -85 213 -224 318 -292 54 -37 85 -63 77 -66 -8 -2 -153 -48 -324 -100 -404 -124 -472 -156 -617 -293 -200 -189 -321 -515 -322 -872 -1 -130 1 -149 21 -185 25 -47 74 -95 123 -121 34 -18 94 -19 1540 -22 1654 -3 1554 -6 1632 58 20 17 48 53 62 82 24 47 26 63 26 170 l0 118 680 0 c655 0 683 1 737 20 122 43 220 136 265 252 22 57 36 210 24 272 -8 44 -59 104 -103 122 -24 11 -98 14 -303 14 l-270 0 0 706 0 705 78 85 c153 166 167 247 67 384 -21 29 -34 55 -29 60 5 4 74 31 154 59 149 53 180 69 212 112 34 46 190 413 195 459 5 50 -19 96 -70 134 -27 20 -41 21 -215 20 -125 0 -219 -6 -284 -17 -54 -10 -100 -17 -103 -17 -3 0 -5 244 -5 543 0 608 -1 614 -67 688 -20 22 -55 50 -77 62 l-41 22 -1085 2 c-913 1 -1091 0 -1123 -12z m2190 -179 l28 -24 3 -574 2 -574 -56 -18 c-155 -49 -341 -148 -490 -262 l-84 -64 -382 2 -381 3 -29 88 c-15 49 -44 122 -63 164 -19 42 -35 77 -35 79 0 2 273 5 606 6 l606 3 24 28 c31 36 31 78 0 114 l-24 28 -671 3 -670 3 -81 79 c-120 117 -274 214 -427 270 l-63 23 0 296 c1 309 1 314 45 339 15 8 298 11 1067 12 l1047 0 28 -24z m-2354 -761 c394 -69 710 -362 814 -754 23 -85 26 -121 31 -319 l4 -223 -25 12 c-19 9 -27 22 -33 53 -26 158 -142 283 -289 314 -27 6 -84 16 -125 22 -73 12 -215 57 -275 87 -16 9 -71 42 -120 74 -138 89 -183 89 -312 2 -136 -92 -290 -151 -456 -173 -108 -15 -172 -41 -234 -95 -59 -52 -111 -146 -120 -216 -7 -52 -18 -69 -46 -69 -19 0 -20 4 -14 213 4 183 9 225 30 309 82 312 300 570 589 694 76 32 197 67 273 77 73 10 229 6 308 -8z m3025 -567 c-17 -40 -51 -120 -77 -177 l-46 -105 -215 -76 c-205 -73 -216 -78 -232 -111 -10 -19 -15 -43 -12 -54 4 -11 40 -68 81 -128 58 -84 73 -112 67 -129 -3 -12 -75 -90 -158 -173 -206 -206 -358 -304 -557 -361 -114 -33 -238 -31 -307 4 -46 25 -94 84 -113 139 -17 53 -6 204 20 283 70 205 214 413 391 562 229 193 482 314 767 367 131 25 156 27 305 29 l117 2 -31 -72z m-3131 -315 c134 -91 309 -158 492 -187 119 -19 148 -32 189 -82 31 -37 46 -84 58 -183 7 -57 28 -87 66 -95 13 -3 36 -8 52 -11 35 -7 83 -53 92 -89 17 -70 -25 -137 -97 -155 -95 -24 -97 -27 -134 -191 -10 -41 -31 -111 -49 -155 -27 -70 -41 -90 -111 -160 -197 -196 -514 -367 -653 -351 -171 20 -508 228 -657 406 -38 46 -88 176 -116 305 -24 105 -42 130 -105 140 -104 15 -152 117 -95 204 17 27 67 51 105 51 14 0 37 10 51 23 21 18 28 37 39 112 15 104 33 144 79 179 34 26 55 32 231 66 154 30 303 92 431 179 33 23 61 41 62 41 2 0 33 -21 70 -47z m1674 -70 c-69 -90 -116 -159 -156 -231 l-46 -82 -175 0 -174 0 0 170 0 170 286 0 286 0 -21 -27z m-279 -550 c-9 -45 -12 -102 -9 -170 l5 -103 -175 0 -175 0 16 23 c46 62 61 111 64 215 l4 102 142 0 143 0 -15 -67z m1098 -928 l0 -625 -548 0 -548 0 -64 66 c-135 137 -240 194 -515 280 -99 30 -244 76 -323 100 l-143 45 78 51 c196 127 350 291 402 428 18 45 34 95 38 111 l6 29 265 0 265 0 -49 -52 c-26 -29 -98 -106 -158 -170 l-109 -118 -74 0 c-77 0 -126 -16 -137 -45 -13 -34 -6 -79 16 -102 l21 -23 634 0 634 0 24 25 c32 31 32 75 1 112 l-24 28 -432 3 -431 3 126 133 126 133 62 -25 c195 -80 539 4 792 194 33 24 61 44 62 44 2 0 3 -281 3 -625z m-2738 -249 c104 -35 178 -41 270 -22 42 9 93 23 112 31 48 20 49 20 41 -17 -11 -50 -32 -85 -76 -128 -137 -133 -377 -60 -420 128 -4 17 -5 32 -3 32 2 0 36 -11 76 -24z m-212 -123 c29 -71 133 -179 202 -211 146 -67 308 -52 435 42 63 46 136 144 148 196 4 16 11 30 17 30 6 0 144 -41 307 -91 363 -112 423 -140 542 -259 125 -124 190 -255 240 -485 21 -96 36 -315 25 -358 -15 -60 73 -57 -1536 -57 l-1472 0 -29 29 c-26 27 -29 36 -29 98 0 279 101 594 240 745 67 74 181 155 257 184 67 26 594 192 614 193 10 1 24 -19 39 -56z m3628 -501 c-7 -124 -67 -212 -167 -248 -28 -10 -189 -13 -717 -14 l-680 0 -18 78 c-16 64 -50 170 -81 245 -7 16 37 17 830 17 l838 0 -5 -78z"/> <path d="M2349 4425 c-29 -16 -52 -66 -42 -93 3 -9 15 -27 26 -39 l20 -23 804 0 804 0 24 25 c32 31 32 75 1 112 l-24 28 -794 2 c-676 2 -797 0 -819 -12z"/> </g> </svg>