<?xml version="1.0" standalone="no"?> <!DOCTYPE svg PUBLIC "-//W3C//DTD SVG 20010904//EN" "http://www.w3.org/TR/2001/REC-SVG-20010904/DTD/svg10.dtd"> <svg version="1.0" xmlns="http://www.w3.org/2000/svg" width="512.000000pt" height="512.000000pt" viewBox="0 0 512.000000 512.000000" preserveAspectRatio="xMidYMid meet"> <g transform="translate(0.000000,512.000000) scale(0.100000,-0.100000)" fill="#ffffff" stroke="none"> <path d="M363 4776 c-99 -32 -178 -99 -230 -198 l-28 -53 0 -1650 0 -1650 27 -57 c37 -79 98 -142 177 -181 l65 -32 249 -3 c225 -3 251 -2 268 14 23 20 25 53 5 80 -13 18 -32 19 -264 24 l-249 5 -49 30 c-61 38 -110 116 -119 189 -3 28 -5 758 -3 1621 l3 1570 30 54 c32 57 69 91 128 116 32 13 279 15 2187 15 1908 0 2155 -2 2187 -15 59 -25 96 -59 128 -116 l30 -54 0 -1615 0 -1615 -29 -53 c-16 -28 -44 -64 -63 -78 -76 -58 56 -54 -1920 -54 -2001 0 -1863 4 -1863 -59 0 -61 -7 -61 469 -63 l432 -3 -51 -104 c-54 -110 -132 -236 -207 -333 l-44 -58 -155 0 c-150 0 -188 -6 -206 -34 -13 -19 -9 -45 12 -66 20 -20 33 -20 1280 -20 1247 0 1260 0 1280 20 21 21 25 47 12 66 -18 28 -56 34 -206 34 l-155 0 -44 58 c-72 93 -151 220 -206 329 -28 57 -51 105 -51 108 0 2 350 6 778 7 l777 3 57 27 c76 35 138 95 179 170 l34 63 0 1650 0 1650 -32 66 c-39 79 -102 140 -181 177 l-57 27 -2170 2 c-1775 1 -2178 -1 -2212 -11z m2704 -3843 c23 -68 136 -280 197 -372 l74 -111 -778 0 -779 0 69 103 c70 104 149 250 188 345 l21 52 501 0 c468 0 501 -1 507 -17z"/> <path d="M427 4462 c-16 -17 -17 -131 -17 -1440 l0 -1421 22 -15 c20 -14 238 -16 2128 -16 1890 0 2108 2 2128 16 21 15 22 20 22 199 l0 185 -26 17 c-24 15 -29 15 -53 2 -26 -15 -26 -15 -29 -157 l-3 -142 -2039 0 -2040 0 0 1335 0 1335 2040 0 2040 0 2 -1112 3 -1112 26 -15 c24 -13 29 -13 53 2 l26 17 0 1154 c0 1104 -1 1154 -18 1169 -17 16 -180 17 -2134 17 -2036 0 -2116 -1 -2131 -18z"/> <path d="M1255 4155 c-38 -9 -112 -36 -164 -62 -221 -110 -357 -320 -369 -569 -6 -130 15 -225 74 -342 47 -94 115 -176 152 -187 21 -6 52 21 246 214 l222 221 267 0 267 0 0 -27 c-1 -41 -44 -157 -80 -213 -78 -121 -227 -223 -368 -250 -81 -16 -210 -8 -286 19 -74 26 -98 26 -121 1 -86 -95 243 -184 465 -127 244 63 439 261 495 501 20 86 20 243 0 321 -56 221 -230 407 -450 480 -101 34 -245 42 -350 20z m85 -373 l0 -267 -190 -190 c-214 -214 -192 -206 -249 -94 -45 86 -64 163 -64 264 1 160 62 296 182 408 70 64 136 102 226 128 105 31 95 56 95 -249z m260 231 c125 -49 237 -149 295 -263 27 -53 55 -144 55 -177 l0 -23 -250 0 -250 0 0 251 0 251 43 -7 c23 -4 71 -18 107 -32z"/> <path d="M2907 3762 c-229 -229 -327 -334 -327 -349 0 -29 26 -53 58 -53 22 0 83 56 322 295 l296 296 297 -296 c247 -246 301 -295 324 -295 23 0 61 33 213 185 102 102 188 185 192 185 5 0 8 -24 8 -54 0 -60 16 -86 54 -86 48 0 56 25 56 178 0 179 8 172 -177 172 -120 0 -135 -2 -153 -20 -11 -11 -20 -29 -20 -40 0 -39 35 -60 97 -60 l58 0 -163 -162 -162 -163 -298 298 c-231 231 -303 297 -322 297 -20 0 -97 -72 -353 -328z"/> <path d="M3059 3373 c-12 -13 -14 -140 -14 -733 0 -692 1 -719 19 -739 18 -20 29 -21 190 -21 139 0 176 3 194 16 l22 15 0 433 c0 407 -1 434 -18 449 -21 19 -45 21 -73 7 -18 -10 -19 -25 -19 -405 l0 -395 -100 0 -100 0 0 640 0 641 98 -3 97 -3 3 -160 c3 -129 6 -163 19 -177 20 -22 42 -23 71 -2 22 15 22 20 22 219 0 172 -2 206 -16 219 -24 24 -375 24 -395 -1z"/> <path d="M2440 2903 c-20 -26 -21 -32 -18 -504 3 -453 4 -478 22 -498 18 -20 29 -21 193 -21 160 0 175 2 193 20 19 19 20 33 20 509 l0 490 -22 15 c-18 13 -55 16 -194 16 l-173 0 -21 -27z m290 -498 l0 -405 -95 0 -95 0 0 405 0 405 95 0 95 0 0 -405z"/> <path d="M742 2604 c-14 -10 -22 -26 -22 -44 0 -62 -20 -60 675 -60 693 0 675 -2 675 59 0 64 28 61 -671 61 -558 0 -637 -2 -657 -16z"/> <path d="M3692 2604 c-22 -15 -22 -15 -22 -353 0 -315 1 -339 18 -354 27 -24 346 -25 380 -1 22 15 22 15 22 354 0 339 0 339 -22 354 -18 13 -54 16 -188 16 -134 0 -170 -3 -188 -16z m288 -354 l0 -250 -100 0 -100 0 0 250 0 250 100 0 100 0 0 -250z"/> <path d="M742 2294 c-14 -10 -22 -26 -22 -44 0 -62 -20 -60 681 -60 603 0 637 1 652 18 24 26 21 68 -5 86 -20 14 -98 16 -653 16 -555 0 -633 -2 -653 -16z"/> <path d="M742 1984 c-14 -10 -22 -26 -22 -44 0 -58 10 -60 371 -60 303 0 327 1 342 18 24 26 21 68 -5 86 -34 24 -652 24 -686 0z"/> <path d="M2530 1387 c-40 -20 -56 -58 -41 -95 25 -61 113 -65 140 -6 16 36 14 50 -11 78 -29 31 -57 39 -88 23z"/> </g> </svg>