<?xml version="1.0" standalone="no"?> <!DOCTYPE svg PUBLIC "-//W3C//DTD SVG 20010904//EN" "http://www.w3.org/TR/2001/REC-SVG-20010904/DTD/svg10.dtd"> <svg version="1.0" xmlns="http://www.w3.org/2000/svg" width="512.000000pt" height="512.000000pt" viewBox="0 0 512.000000 512.000000" preserveAspectRatio="xMidYMid meet"> <g transform="translate(0.000000,512.000000) scale(0.100000,-0.100000)" fill="#1c5b8f" stroke="none"> <path d="M2340 4789 c-520 -49 -1020 -292 -1390 -675 -337 -350 -527 -740 -612 -1259 -21 -133 -16 -494 10 -645 85 -499 305 -919 658 -1260 282 -272 611 -457 986 -554 221 -58 325 -70 573 -70 249 0 371 16 597 78 1038 286 1727 1288 1627 2366 -91 980 -818 1789 -1786 1985 -209 42 -449 54 -663 34z m425 -319 c449 -52 869 -258 1175 -576 561 -584 698 -1441 345 -2170 -66 -136 -203 -351 -215 -337 -4 4 -35 50 -70 102 -35 51 -108 139 -162 196 -157 165 -285 261 -481 361 -617 316 -1362 236 -1907 -203 -132 -106 -274 -265 -364 -406 l-37 -57 -23 27 c-51 61 -140 209 -196 325 -316 659 -233 1423 219 2013 247 323 642 578 1051 679 208 51 463 69 665 46z"/> <path d="M2415 4146 c-218 -43 -405 -168 -525 -353 -89 -136 -125 -259 -125 -433 0 -174 36 -297 124 -432 243 -371 737 -478 1104 -238 370 241 477 737 237 1103 -110 169 -278 291 -470 341 -88 23 -257 29 -345 12z"/> </g> </svg>