<?xml version="1.0" standalone="no"?> <!DOCTYPE svg PUBLIC "-//W3C//DTD SVG 20010904//EN" "http://www.w3.org/TR/2001/REC-SVG-20010904/DTD/svg10.dtd"> <svg version="1.0" xmlns="http://www.w3.org/2000/svg" width="512.000000pt" height="512.000000pt" viewBox="0 0 512.000000 512.000000" preserveAspectRatio="xMidYMid meet"> <g transform="translate(0.000000,512.000000) scale(0.100000,-0.100000)" fill="#e1ab2b" stroke="none"> <path d="M1710 4824 c-114 -18 -272 -58 -319 -82 -19 -9 -44 -30 -55 -45 -21 -28 -21 -39 -24 -800 -2 -425 0 -792 3 -816 9 -59 58 -111 107 -111 18 0 85 13 148 29 293 74 607 65 902 -25 l87 -27 111 32 c60 18 160 41 220 51 111 18 143 32 153 69 8 31 -19 80 -49 87 -32 8 -155 -9 -268 -37 -44 -10 -81 -17 -83 -15 -4 4 -5 1478 -1 1481 2 1 39 12 83 23 261 70 579 69 845 -1 l85 -22 5 -83 c4 -68 9 -86 24 -98 45 -32 108 -6 122 51 4 15 4 62 2 106 -7 124 -32 147 -208 193 -172 45 -304 59 -510 53 -190 -6 -304 -23 -457 -68 l-73 -22 -73 22 c-164 48 -264 62 -477 66 -150 3 -231 0 -300 -11z m477 -145 c95 -12 293 -58 293 -67 1 -626 0 -1475 -2 -1478 -2 -1 -39 6 -83 17 -266 64 -570 64 -840 0 -47 -12 -89 -21 -91 -21 -2 0 -3 334 -2 742 l3 742 85 23 c47 13 126 29 175 37 109 17 355 20 462 5z"/> <path d="M1666 4118 c-36 -33 -39 -75 -6 -108 19 -19 33 -20 315 -20 282 0 296 1 315 20 30 30 27 83 -6 109 -26 20 -39 21 -310 21 -279 0 -283 0 -308 -22z"/> <path d="M1661 3782 c-30 -24 -31 -76 -2 -105 21 -22 27 -22 315 -22 275 0 295 1 315 19 27 25 28 79 1 106 -19 19 -33 20 -314 20 -265 0 -296 -2 -315 -18z"/> <path d="M3686 4199 l-26 -20 0 -525 c0 -288 -1 -524 -3 -524 -1 0 -52 11 -112 25 -61 13 -142 28 -181 31 -64 6 -74 4 -93 -15 -27 -27 -28 -82 -1 -106 12 -11 58 -24 127 -35 60 -10 143 -27 186 -39 111 -30 142 -28 182 12 24 24 35 46 40 78 3 24 5 280 3 567 l-3 524 -28 24 c-34 29 -56 30 -91 3z"/> <path d="M2836 4119 c-33 -26 -36 -79 -6 -109 19 -19 33 -20 315 -20 282 0 296 1 315 20 33 33 30 75 -6 108 -25 22 -29 22 -308 22 -271 0 -284 -1 -310 -21z"/> <path d="M873 3843 c-53 -58 -187 -271 -248 -397 -75 -153 -133 -318 -169 -478 -39 -173 -37 -215 10 -236 36 -17 49 -15 79 11 19 17 28 37 36 87 48 308 166 576 398 909 36 52 38 69 10 105 -29 37 -81 36 -116 -1z"/> <path d="M4162 3847 c-32 -34 -27 -66 20 -127 126 -167 248 -398 312 -592 20 -60 47 -165 61 -235 21 -106 30 -132 51 -150 32 -29 54 -29 89 -1 27 21 27 24 21 92 -7 90 -54 275 -101 403 -78 208 -229 479 -330 591 -45 50 -88 57 -123 19z"/> <path d="M2830 3780 c-27 -27 -26 -81 1 -106 20 -18 40 -19 315 -19 288 0 294 0 315 22 29 29 28 81 -2 105 -19 16 -50 18 -315 18 -281 0 -295 -1 -314 -20z"/> <path d="M976 2570 c-74 -23 -96 -73 -96 -223 l0 -115 -133 -1 c-167 -1 -332 -28 -486 -80 -158 -53 -211 -80 -238 -120 -20 -30 -23 -46 -23 -143 0 -102 1 -110 25 -133 31 -32 69 -32 100 0 23 22 25 32 25 109 l0 86 38 16 c343 146 773 155 1127 23 l90 -34 0 -360 c0 -314 -2 -371 -19 -450 -44 -212 -146 -446 -239 -550 -99 -111 -217 -165 -361 -165 -171 0 -319 77 -410 214 -140 210 -226 501 -226 759 0 69 -3 81 -25 102 -31 32 -69 32 -102 -1 l-26 -26 6 -132 c9 -214 59 -418 152 -614 94 -198 195 -312 340 -383 105 -51 180 -69 290 -69 181 0 314 57 445 189 71 72 95 105 143 197 l57 112 48 -14 c233 -71 497 0 655 176 100 111 121 182 65 223 -42 31 -70 17 -133 -68 -61 -83 -110 -123 -200 -166 -106 -50 -241 -57 -351 -19 l-30 10 28 112 c16 61 31 142 35 180 3 42 12 73 21 80 9 8 46 13 97 13 73 0 89 -4 145 -32 77 -41 111 -42 139 -7 44 56 21 97 -83 145 -78 37 -164 53 -243 46 l-62 -6 -3 284 -3 284 -28 29 c-47 49 -329 148 -467 164 -25 3 -25 4 -28 107 -2 92 -1 103 13 97 9 -3 51 -15 93 -25 338 -86 761 -83 1085 8 l68 19 -4 -382 c-4 -357 -5 -387 -27 -471 -36 -143 -37 -168 -5 -194 58 -45 103 -19 130 75 45 156 48 185 52 619 l4 420 -23 35 c-40 60 -79 65 -211 30 -225 -59 -272 -65 -537 -65 -267 0 -313 5 -528 61 -72 19 -133 34 -135 33 -1 0 -15 -5 -31 -9z"/> <path d="M3873 2485 c-409 -74 -733 -375 -845 -785 -20 -74 -23 -108 -23 -260 0 -152 3 -186 23 -260 131 -479 545 -800 1032 -800 178 0 338 40 496 124 261 139 454 384 531 674 23 86 26 116 26 262 0 148 -2 175 -27 265 -81 297 -284 548 -551 682 -200 101 -447 137 -662 98z m296 -141 l32 -7 -67 -48 c-37 -27 -71 -49 -76 -49 -6 0 -39 21 -74 47 -53 39 -62 49 -47 55 23 9 190 10 232 2z m-306 -154 l117 -85 0 -117 0 -117 -72 -54 c-40 -29 -113 -81 -161 -116 l-88 -64 -102 40 -102 40 -47 149 c-26 82 -48 152 -48 156 0 12 97 105 154 148 72 55 204 122 220 113 7 -5 65 -46 129 -93z m574 79 c74 -31 202 -121 265 -186 l58 -58 -46 -140 c-25 -77 -50 -147 -54 -156 -11 -20 -196 -93 -212 -83 -7 4 -82 57 -166 118 l-153 111 3 114 3 114 125 93 c69 51 126 93 127 93 1 1 23 -8 50 -20z m486 -549 c14 -41 27 -90 30 -108 l7 -33 -58 41 c-31 23 -65 48 -75 55 -18 13 -18 16 9 99 l28 86 18 -32 c10 -18 28 -67 41 -108z m-1641 50 l26 -80 -71 -54 c-49 -36 -73 -48 -75 -39 -7 28 71 253 87 253 4 0 19 -36 33 -80z m890 -112 c62 -44 130 -94 150 -110 l36 -28 -57 -173 -58 -172 -185 -3 -185 -2 -57 176 c-32 97 -56 177 -54 179 5 6 293 215 295 215 1 0 53 -37 115 -82z m-660 -125 l98 -38 61 -190 c68 -212 69 -188 -10 -287 l-46 -58 -167 0 -168 0 -31 62 c-40 78 -66 153 -84 241 -26 122 -30 114 108 215 67 50 127 91 132 91 6 1 54 -15 107 -36z m1332 -55 l126 -92 -6 -51 c-10 -86 -43 -196 -86 -287 l-41 -88 -168 0 -167 0 -60 75 -60 75 55 171 c30 95 58 181 62 193 6 14 37 32 97 57 49 21 96 38 105 38 9 1 73 -40 143 -91z m-520 -535 l59 -75 -51 -157 -51 -156 -68 -13 c-72 -14 -292 -11 -348 5 -28 9 -33 17 -81 164 l-51 154 60 78 59 77 207 0 206 -1 59 -76z m-702 -222 c15 -47 26 -87 23 -89 -12 -12 -235 149 -235 170 0 5 42 7 92 6 l93 -3 27 -84z m1057 53 c-42 -44 -196 -150 -205 -141 -4 3 5 45 20 92 l27 85 96 0 97 0 -35 -36z"/> <path d="M1819 1951 c-111 -36 -155 -112 -93 -160 33 -26 54 -26 101 -1 50 27 120 26 177 -2 38 -18 48 -20 74 -9 17 7 36 25 42 41 29 71 -57 132 -193 137 -45 1 -94 -1 -108 -6z"/> <path d="M323 1448 c-12 -6 -27 -23 -33 -38 -17 -42 4 -78 65 -109 42 -22 63 -26 135 -26 73 0 93 4 136 27 28 15 54 34 58 43 14 37 6 74 -20 94 -33 26 -41 26 -95 1 -56 -25 -110 -25 -159 0 -44 22 -55 23 -87 8z"/> <path d="M895 1435 c-100 -99 118 -209 287 -145 70 26 102 62 94 104 -13 62 -60 79 -125 47 -50 -26 -103 -26 -160 -1 -56 26 -67 25 -96 -5z"/> <path d="M500 950 c-28 -28 -26 -81 3 -107 55 -51 181 -93 277 -93 112 0 269 59 296 112 18 34 9 73 -19 93 -32 22 -57 19 -127 -17 -57 -30 -72 -33 -150 -33 -78 0 -93 3 -150 33 -73 37 -102 40 -130 12z"/> <path d="M1960 532 c-29 -23 -33 -83 -8 -108 20 -21 163 -57 315 -80 159 -24 454 -24 613 0 146 22 279 53 306 71 30 19 38 59 19 95 -21 41 -50 45 -150 21 -291 -72 -593 -77 -895 -14 -182 37 -173 37 -200 15z"/> </g> </svg>