<svg version="1.0" xmlns="http://www.w3.org/2000/svg" width="512.000000ptpx" height="512.000000ptpx" viewBox="0 0 512.000000 512.000000" preserveAspectRatio="xMidYMid meet" transform="rotate(0) scale(1, 1)">

<g transform="translate(0.000000,512.000000) scale(0.100000,-0.100000)" fill="#1d5d91" stroke="none">
<path d="M76 5097 c-71 -40 -95 -121 -57 -196 30 -57 58 -70 202 -91 281 -41&#10;512 -134 742 -297 110 -78 296 -266 380 -383 130 -183 241 -448 283 -675 12&#10;-65 19 -180 24 -420 l7 -330 180 -425 180 -425 -188 -5 c-205 -5 -214 -8 -263&#10;-74 -19 -25 -21 -46 -27 -244 -5 -203 -7 -222 -33 -297 -36 -105 -84 -182&#10;-160 -258 -72 -71 -163 -128 -256 -159 -62 -22 -85 -23 -527 -28 -446 -5 -462&#10;-6 -489 -26 -15 -11 -37 -33 -48 -48 -20 -26 -21 -43 -24 -311 -3 -270 -2&#10;-286 18 -324 23 -46 80 -81 130 -81 50 0 107 35 130 80 18 35 20 59 20 224 l0&#10;185 383 3 c361 4 386 5 456 27 428 129 701 495 701 937 l0 94 226 0 c213 0&#10;229 1 261 21 41 26 66 71 67 124 0 30 -54 168 -222 568 l-222 528 0 240 c0&#10;245 -9 373 -36 514 -100 518 -412 980 -855 1268 -229 149 -509 253 -782 292&#10;-135 19 -155 19 -201 -8z"/>
<path d="M3698 1879 c-23 -12 -46 -35 -58 -59 -20 -38 -20 -58 -20 -825 0&#10;-752 1 -787 19 -823 22 -43 84 -82 130 -82 51 0 108 35 131 80 20 38 20 57 20&#10;825 0 768 0 787 -20 825 -37 73 -127 99 -202 59z"/>
<path d="M3100 1461 c-19 -10 -45 -36 -57 -57 -22 -38 -23 -45 -23 -407 0&#10;-349 1 -370 20 -407 23 -45 80 -80 130 -80 50 0 107 35 130 80 19 37 20 58 20&#10;407 0 362 -1 369 -23 407 -26 45 -77 76 -127 76 -19 0 -51 -8 -70 -19z"/>
<path d="M4300 1461 c-19 -10 -45 -36 -57 -57 -22 -38 -23 -45 -23 -407 0&#10;-349 1 -370 20 -407 23 -45 80 -80 130 -80 50 0 107 35 130 80 19 37 20 58 20&#10;407 0 362 -1 369 -23 407 -26 45 -77 76 -127 76 -19 0 -51 -8 -70 -19z"/>
<path d="M2502 1244 c-18 -9 -43 -31 -55 -48 -20 -28 -22 -45 -25 -188 -4&#10;-176 5 -210 62 -251 43 -31 129 -31 172 0 55 39 64 73 64 238 0 164 -9 199&#10;-63 237 -39 28 -112 34 -155 12z"/>
<path d="M4902 1244 c-18 -9 -43 -31 -55 -48 -20 -28 -22 -45 -25 -188 -4&#10;-176 5 -210 62 -251 43 -31 129 -31 172 0 55 39 64 73 64 238 0 164 -9 199&#10;-63 237 -39 28 -112 34 -155 12z"/>
</g>
</svg>