<?xml version="1.0" standalone="no"?> <!DOCTYPE svg PUBLIC "-//W3C//DTD SVG 20010904//EN" "http://www.w3.org/TR/2001/REC-SVG-20010904/DTD/svg10.dtd"> <svg version="1.0" xmlns="http://www.w3.org/2000/svg" width="512.000000pt" height="512.000000pt" viewBox="0 0 512.000000 512.000000" preserveAspectRatio="xMidYMid meet"> <g transform="translate(0.000000,512.000000) scale(0.100000,-0.100000)" fill="#e1ab2b" stroke="none"> <path d="M1540 4786 c-216 -46 -404 -189 -499 -378 -68 -138 -74 -170 -79 -465 l-4 -263 -294 0 -295 0 -24 -25 c-14 -13 -25 -32 -25 -42 0 -10 -36 -736 -80 -1613 -44 -877 -80 -1603 -80 -1613 0 -10 11 -29 25 -42 l24 -25 2351 0 2351 0 24 25 c14 13 25 33 25 43 0 10 -36 486 -80 1057 -44 571 -80 1044 -80 1052 0 8 -11 25 -25 38 l-24 25 -591 0 -590 0 0 28 c0 15 -11 245 -25 512 -14 267 -25 495 -25 508 0 13 -11 34 -25 47 l-24 25 -295 0 -294 0 -4 263 c-5 296 -10 326 -80 467 -60 120 -187 248 -308 308 -47 23 -114 50 -150 59 -88 23 -272 24 -358 0 -57 -15 -67 -15 -120 -1 -80 22 -242 27 -322 10z m93 -220 c-47 -50 -84 -102 -111 -158 -69 -138 -75 -169 -80 -465 l-4 -263 -159 0 -159 0 0 223 c0 252 8 312 54 412 88 189 282 319 484 324 l44 1 -69 -74z m710 41 c91 -33 145 -67 211 -133 65 -65 99 -118 135 -213 24 -63 25 -77 29 -323 l4 -258 -161 0 -161 0 0 229 c0 242 -10 326 -49 432 -29 78 -92 172 -159 243 l-57 58 72 -6 c40 -3 101 -17 136 -29z m-359 -58 c101 -63 176 -159 225 -288 24 -63 25 -77 29 -323 l4 -258 -322 0 -322 0 4 258 c4 246 5 260 29 323 35 91 71 149 127 206 53 54 137 113 162 113 9 0 38 -14 64 -31z m-1024 -1288 l0 -258 -111 -73 c-60 -41 -114 -81 -120 -91 -5 -10 -9 -167 -9 -364 l0 -346 25 -24 24 -25 271 0 271 0 24 25 25 24 0 346 c0 197 -4 354 -9 364 -6 10 -60 50 -120 91 l-111 73 0 258 0 259 560 0 560 0 0 -135 c0 -131 1 -137 25 -160 32 -33 78 -33 110 0 24 23 25 29 25 160 l0 135 160 0 c158 0 160 0 164 -22 4 -19 47 -885 46 -925 0 -10 -55 -13 -240 -13 -238 0 -241 0 -264 -23 -17 -17 -24 -38 -28 -87 -4 -36 -39 -494 -79 -1018 l-73 -952 -882 0 -882 0 4 38 c2 20 36 694 75 1497 39 803 72 1470 75 1483 l4 22 240 0 240 0 0 -259z m2112 -191 c14 -245 27 -460 27 -477 l1 -33 -85 0 c-85 0 -85 0 -85 26 0 29 -38 802 -43 882 l-4 53 81 -3 81 -3 27 -445z m292 428 c4 -19 47 -885 46 -925 0 -9 -22 -13 -75 -13 -65 0 -75 2 -75 18 0 9 -11 204 -25 432 -14 228 -25 436 -25 463 l0 47 75 0 c69 0 75 -2 79 -22z m-2242 -689 l78 -52 0 -258 0 -259 -160 0 -160 0 0 259 0 258 78 52 c42 28 79 51 81 51 3 0 40 -23 83 -51z m2956 -1356 c40 -522 73 -954 72 -960 0 -19 -1900 -19 -1900 0 -1 6 32 438 72 960 l72 947 806 0 806 0 72 -947z m252 930 c0 -10 34 -346 74 -748 l74 -730 -89 -135 c-49 -74 -89 -128 -89 -119 0 9 -29 396 -65 859 -36 463 -65 853 -65 866 0 23 3 24 80 24 69 0 80 -2 80 -17z m381 -827 c35 -464 62 -843 58 -841 -3 3 -34 47 -69 100 l-63 95 -73 733 c-40 402 -74 738 -74 745 0 8 22 12 78 12 l78 0 65 -844z m-63 -951 l82 -125 -170 0 -170 0 82 125 c46 68 85 124 88 124 3 0 42 -56 88 -124z"/> <path d="M2744 2055 l-25 -25 3 -383 3 -383 37 -76 c45 -91 103 -147 196 -191 l67 -32 175 0 175 0 67 32 c93 44 151 100 196 191 l37 76 3 383 3 383 -25 25 c-33 33 -79 33 -111 0 l-25 -24 0 -352 c0 -243 -4 -364 -12 -391 -17 -59 -88 -133 -145 -152 -57 -20 -256 -22 -317 -4 -55 16 -138 99 -154 154 -8 29 -12 146 -12 393 l0 352 -25 24 c-32 33 -78 33 -111 0z"/> </g> </svg>