<?xml version="1.0" standalone="no"?> <!DOCTYPE svg PUBLIC "-//W3C//DTD SVG 20010904//EN" "http://www.w3.org/TR/2001/REC-SVG-20010904/DTD/svg10.dtd"> <svg version="1.0" xmlns="http://www.w3.org/2000/svg" width="512.000000pt" height="512.000000pt" viewBox="0 0 512.000000 512.000000" preserveAspectRatio="xMidYMid meet"> <g transform="translate(0.000000,512.000000) scale(0.100000,-0.100000)" fill="#e1ab2b" stroke="none"> <path d="M2389 5025 c-295 -56 -559 -254 -692 -520 -137 -274 -137 -586 0 -862 119 -241 330 -417 600 -500 82 -25 101 -27 263 -27 161 0 182 3 263 27 269 82 481 259 600 500 137 276 137 588 0 862 -126 252 -366 442 -645 511 -91 22 -296 27 -389 9z m376 -170 c284 -76 511 -312 581 -602 24 -100 22 -276 -5 -378 -127 -478 -637 -732 -1092 -545 -229 95 -404 298 -470 545 -27 102 -29 278 -5 378 73 304 313 542 613 608 104 23 281 20 378 -6z"/> <path d="M2824 4525 c-28 -17 -92 -89 -204 -231 l-163 -207 -25 29 c-94 113 -120 139 -156 155 -50 23 -100 24 -155 4 -118 -41 -181 -157 -148 -267 26 -85 231 -334 308 -373 151 -79 336 -46 446 79 75 85 390 492 409 526 25 49 24 134 -4 186 -24 47 -71 90 -119 111 -54 22 -142 17 -189 -12z m159 -166 c16 -23 17 -30 6 -50 -21 -41 -367 -475 -404 -507 -74 -65 -182 -67 -256 -4 -31 26 -157 179 -193 234 -21 32 -14 62 20 84 41 27 64 11 154 -105 62 -83 92 -114 117 -122 62 -20 70 -11 366 365 101 129 110 137 139 134 19 -2 38 -13 51 -29z"/> <path d="M1281 3190 c-270 -73 -467 -273 -536 -545 -27 -105 -25 -371 4 -478 31 -116 92 -226 177 -316 l73 -78 -97 -6 c-172 -11 -317 -59 -459 -153 -146 -97 -256 -238 -311 -399 l-27 -80 -3 -502 -3 -503 25 -25 25 -25 2411 0 2411 0 24 25 25 24 0 465 c0 493 -4 550 -50 666 -12 30 -34 75 -49 100 -19 31 -30 64 -33 102 -2 31 -12 68 -21 82 -15 22 -297 270 -381 334 -34 26 -93 29 -134 8 -15 -8 -49 -37 -77 -65 -47 -49 -51 -51 -103 -51 l-55 0 74 78 c79 82 143 191 173 292 26 87 38 266 27 389 -18 193 -82 332 -216 466 -91 91 -174 144 -290 182 -73 25 -94 27 -230 28 -139 0 -156 -2 -230 -28 -225 -79 -393 -247 -472 -472 -27 -78 -28 -85 -28 -295 1 -206 2 -218 27 -287 39 -110 93 -198 170 -279 l71 -74 -633 0 -632 0 74 79 c88 93 148 204 179 329 18 73 20 107 17 265 -4 167 -6 189 -32 262 -77 224 -248 395 -471 471 -110 38 -302 44 -414 14z m324 -155 c203 -52 368 -217 420 -420 21 -82 21 -326 -1 -408 -35 -137 -120 -256 -239 -336 -176 -118 -392 -131 -581 -35 -140 70 -234 179 -287 334 -28 79 -30 95 -30 235 0 235 38 340 173 476 78 79 158 127 256 154 67 18 217 18 289 0z m2195 0 c182 -48 339 -193 401 -370 50 -142 46 -387 -7 -523 -33 -83 -99 -177 -161 -231 -97 -83 -253 -141 -378 -141 -256 0 -495 186 -559 436 -19 73 -22 314 -5 396 41 196 215 378 415 433 66 18 226 18 294 0z m776 -1441 c101 -85 153 -136 153 -149 1 -31 -43 -117 -76 -148 l-30 -28 -194 69 c-144 50 -195 72 -197 85 -10 48 150 315 182 304 5 -2 78 -61 162 -133z m-2011 -30 c-115 -94 -210 -237 -252 -379 -15 -52 -17 -118 -21 -503 l-3 -442 -754 0 -754 0 -3 156 c-3 150 -4 157 -27 175 -31 25 -79 24 -108 -3 -22 -21 -23 -27 -23 -175 l0 -153 -180 0 -180 0 0 413 c0 447 4 486 56 590 73 143 221 269 379 322 128 43 132 43 1048 44 l879 1 -57 -46z m1539 -11 c-50 -124 -52 -215 -4 -258 26 -23 482 -185 522 -185 45 0 111 35 152 81 l36 39 14 -34 c32 -76 36 -139 36 -546 l0 -410 -150 0 -150 0 0 140 c0 181 -13 210 -90 210 -17 0 -38 -9 -50 -22 -18 -20 -20 -35 -20 -175 l0 -153 -710 0 -710 0 0 152 c0 142 -1 153 -22 175 -27 29 -77 30 -109 4 -23 -18 -24 -25 -27 -175 l-3 -156 -185 0 -185 0 3 437 c4 424 4 440 26 497 64 172 208 314 387 382 134 50 162 52 731 53 l532 1 -24 -57z"/> </g> </svg>