<?xml version="1.0" standalone="no"?> <!DOCTYPE svg PUBLIC "-//W3C//DTD SVG 20010904//EN" "http://www.w3.org/TR/2001/REC-SVG-20010904/DTD/svg10.dtd"> <svg version="1.0" xmlns="http://www.w3.org/2000/svg" width="314.000000pt" height="278.000000pt" viewBox="0 0 314.000000 278.000000" preserveAspectRatio="xMidYMid meet"> <g transform="translate(0.000000,278.000000) scale(0.100000,-0.100000)" fill="#1c5b8f" stroke="none"> <path d="M1415 2636 c-287 -48 -522 -171 -716 -372 -158 -166 -259 -350 -316 -581 -23 -94 -27 -129 -27 -273 -1 -124 4 -186 17 -250 52 -243 156 -443 321 -617 106 -112 216 -193 361 -264 355 -174 755 -171 1110 8 128 64 206 122 320 237 180 181 287 380 342 636 25 118 25 362 0 480 -55 258 -161 455 -347 641 -183 183 -382 291 -635 344 -107 23 -327 28 -430 11z m423 -265 c243 -60 460 -215 596 -423 102 -157 153 -313 163 -503 24 -476 -294 -899 -767 -1018 -115 -29 -329 -30 -445 -3 -385 90 -671 376 -761 761 -27 116 -26 330 3 445 87 343 331 609 660 719 163 55 382 63 551 22z"/> <path d="M970 1685 l-85 -85 358 -358 357 -357 357 357 358 358 -88 87 -87 88 -270 -270 -271 -270 -265 268 c-146 147 -269 267 -273 267 -3 0 -45 -38 -91 -85z"/> </g> </svg>