<?xml version="1.0" standalone="no"?> <!DOCTYPE svg PUBLIC "-//W3C//DTD SVG 20010904//EN" "http://www.w3.org/TR/2001/REC-SVG-20010904/DTD/svg10.dtd"> <svg version="1.0" xmlns="http://www.w3.org/2000/svg" width="512.000000pt" height="512.000000pt" viewBox="0 0 512.000000 512.000000" preserveAspectRatio="xMidYMid meet"> <g transform="translate(0.000000,512.000000) scale(0.100000,-0.100000)" fill="#ffffff" stroke="none"> <path d="M1499 3827 c-20 -8 -52 -23 -70 -35 -19 -11 -266 -254 -550 -539 -580 -582 -554 -549 -554 -698 1 -139 -18 -116 568 -701 586 -586 566 -569 702 -569 98 0 158 25 227 92 65 64 92 129 92 223 0 128 -18 156 -276 416 l-221 224 1574 2 1574 3 52 24 c62 27 126 93 156 159 31 68 30 197 -2 269 -26 59 -99 132 -157 160 -37 17 -119 18 -1618 21 l-1579 2 224 228 c251 253 269 279 276 397 6 88 -20 162 -79 229 -60 69 -125 99 -223 103 -51 2 -93 -2 -116 -10z"/> </g> </svg>