<?xml version="1.0" standalone="no"?> <!DOCTYPE svg PUBLIC "-//W3C//DTD SVG 20010904//EN" "http://www.w3.org/TR/2001/REC-SVG-20010904/DTD/svg10.dtd"> <svg version="1.0" xmlns="http://www.w3.org/2000/svg" width="512.000000pt" height="512.000000pt" viewBox="0 0 512.000000 512.000000" preserveAspectRatio="xMidYMid meet"> <g transform="translate(0.000000,512.000000) scale(0.100000,-0.100000)" fill="#e1ab2b" stroke="none"> <path d="M180 4050 c-140 -25 -221 -183 -156 -308 8 -15 303 -344 657 -732 353 -388 888 -975 1189 -1305 419 -459 557 -605 588 -619 53 -24 151 -24 204 0 32 14 301 304 1230 1324 655 718 1196 1317 1204 1332 21 41 28 108 15 156 -34 123 -186 191 -300 133 -30 -16 -331 -339 -1142 -1229 -605 -664 -1104 -1207 -1109 -1207 -5 0 -504 543 -1109 1207 -630 691 -1115 1215 -1133 1224 -43 23 -95 31 -138 24z"/> </g> </svg>