<svg version="1.1" xmlns="http://www.w3.org/2000/svg" xmlns:xlink="http://www.w3.org/1999/xlink" x="0px" y="0px" viewBox="0 0 256 256" enable-background="new 0 0 256 256" xml:space="preserve" height="100px" width="100px" transform="rotate(0) scale(1, 1)">
<metadata> Svg Vector Icons : http://www.onlinewebfonts.com/icon </metadata>
<g> <path fill="#1c5b8f" d="M70.2,53.4h115.1v14.4H70.2V53.4z M69.9,82.3H185v14.4H69.9V82.3z M69.9,111.1h74v14.4h-74V111.1z  M69.9,139.9h31.1v14.4H69.9V139.9z M214.1,10H41.5c-7.9,0-14.4,6.4-14.4,14.4v201.5c0,7.9,6.4,14.4,14.4,14.4l67.3-0.1v-14.4 l-67.3,0.1V24.4h172.7v104h14.4v-104C228.5,16.4,222.1,10,214.1,10L214.1,10z M198.8,176.9c-3.8,0-6.9,3.1-6.9,6.9 c0,3.8,3.1,6.9,6.9,6.9c3.8,0,6.9-3.1,6.9-6.9C205.6,180,202.5,176.9,198.8,176.9z M119.1,156.3v54.9c0,7.6,6.1,13.7,13.5,13.7h5.3 c0.1,0,0.3,0,0.4,0c3.1,0,5.5-2.5,5.5-5.5c0-3.1-2.5-5.5-5.5-5.5c-0.3,0-0.6,0-0.9,0.1h-1.9c-3,0-5.4-2.5-5.4-5.5v-49 c0-3,2.4-5.9,5.4-5.9h77c3,0,5.4,2.8,5.4,5.9v49c0,3-2.4,5.5-5.4,5.5h-43.1c-1.6-0.2-3.4,0.3-4.6,1.6L144,236.6 c-2.1,2.1-2.1,5.6,0,7.8c2.1,2.1,5.6,2.1,7.7,0l19.2-19.4h44.4c7.5,0,13.6-6.1,13.6-13.7v-54.9c0-7.6-6.1-13.7-13.6-13.7h-82.6 C125.2,142.6,119.1,148.8,119.1,156.3z M174,176.9c-3.8,0-6.9,3.1-6.9,6.9c0,3.8,3.1,6.9,6.9,6.9s6.9-3.1,6.9-6.9 C180.9,180,177.8,176.9,174,176.9z M142.5,183.8c0,3.8,3.1,6.9,6.9,6.9s6.9-3.1,6.9-6.9c0-3.8-3.1-6.9-6.9-6.9 S142.5,180,142.5,183.8z"/></g>
</svg>