<?xml version="1.0" standalone="no"?> <!DOCTYPE svg PUBLIC "-//W3C//DTD SVG 20010904//EN" "http://www.w3.org/TR/2001/REC-SVG-20010904/DTD/svg10.dtd"> <svg version="1.0" xmlns="http://www.w3.org/2000/svg" width="512.000000pt" height="512.000000pt" viewBox="0 0 512.000000 512.000000" preserveAspectRatio="xMidYMid meet"> <g transform="translate(0.000000,512.000000) scale(0.100000,-0.100000)" fill="#1c5b8f" stroke="none"> <path d="M2012 4789 c-328 -38 -676 -180 -947 -388 -85 -65 -247 -223 -318 -311 -528 -653 -570 -1575 -106 -2271 193 -289 444 -509 755 -660 468 -228 1006 -258 1494 -84 174 63 407 192 531 296 26 22 51 39 55 39 5 0 252 -243 549 -539 585 -585 560 -564 652 -546 49 9 109 69 118 118 18 92 39 67 -546 652 -296 297 -539 545 -539 551 0 6 9 19 20 29 29 26 150 207 198 295 172 319 256 720 223 1070 -50 523 -287 983 -674 1306 -293 246 -618 389 -996 439 -115 16 -352 18 -469 4z m543 -339 c499 -106 908 -424 1125 -874 345 -715 110 -1578 -550 -2021 -540 -362 -1241 -362 -1780 0 -731 491 -928 1475 -443 2210 255 385 666 641 1133 705 113 15 402 4 515 -20z"/> <path d="M2175 3826 c-37 -17 -70 -52 -84 -89 -7 -18 -11 -150 -11 -362 l0 -334 -349 -3 c-335 -3 -351 -4 -377 -24 -53 -39 -69 -71 -69 -134 0 -63 16 -95 69 -134 26 -20 42 -21 376 -24 l349 -3 3 -349 c3 -334 4 -350 24 -376 39 -53 71 -69 134 -69 63 0 95 16 134 69 20 26 21 42 24 376 l3 349 349 3 c334 3 350 4 376 24 53 39 69 71 69 134 0 63 -16 95 -69 134 -26 20 -42 21 -376 24 l-349 3 -3 349 c-3 334 -4 350 -24 376 -11 15 -32 37 -46 47 -34 25 -113 32 -153 13z"/> </g> </svg>